{"title":"It's a Wonderful Afterlife - 2010","uid":5663346,"size":741707882,"categoryP":"video","categoryS":"movies","magnet":"?xt=urn:btih:f4d669ee6bc3315001afea7123d040161390b489&amp;dn=It%5C%27s+a+Wonderful+Afterlife+-+2010&amp;tr=udp%3A%2F%2Ftracker.openbittorrent.com%3A80&amp;tr=udp%3A%2F%2Fopen.demonii.com%3A1337&amp;tr=udp%3A%2F%2Ftracker.coppersurfer.tk%3A6969&amp;tr=udp%3A%2F%2Fexodus.desync.com%3A6969","seeders":0,"leechers":1,"uploader":"vicerock","files":-1,"time":1278046716,"description":"General\nIt's a Wonderful Afterlife - DVDRip - XviD - 1CDRip - [DDR]\n\nFormat : AVI\nFormat/Info : Audio Video Interleave\nFile size : 700 MiB\nDuration : 1h 42mn\nOverall bit rate : 951 Kbps\nWriting application : VirtualDubMod 1.5.10.2 (build 2540/release)\nWriting library : VirtualDubMod build 2540/release\n\nVideo\nID : 0\nFormat : MPEG-4 Visual\nFormat profile : AdvancedSimple@L5\nFormat settings, BVOP : Yes\nFormat settings, QPel : No\nFormat settings, GMC : No warppoints\nFormat settings, Matrix : Custom\nCodec ID : XVID\nCodec ID/Hint : XviD\nDuration : 1h 42mn\nBit rate : 814 Kbps\nWidth : 672 pixels\nHeight : 288 pixels\nDisplay aspect ratio : 2.35:1\nFrame rate : 23.976 fps\nResolution : 24 bits\nColorimetry : 4:2:0\nScan type : Progressive\nBits/(Pixel*Frame) : 0.175\nStream size : 599 MiB (86%)\nWriting library : XviD 1.2.1 (UTC 2008-12-04)\n\nAudio\nID : 1\nFormat : AC-3\nFormat/Info : Audio Coding 3\nCodec ID : 2000\nDuration : 1h 42mn\nBit rate mode : Constant\nBit rate : 128 Kbps\nChannel(s) : 6 channels\nChannel positions : Front: L C R, Surround: L R, LFE\nSampling rate : 48.0 KHz\nStream size : 93.7 MiB (13%)\nAlignment : Split accross interleaves\nInterleave, duration : 42 ms (1.01 video frame)\nInterleave, preload duration : 500 ms\n\nPlot\n\nThe film is a comedy which uses satirical and Ealing-style humour. Depicting life amongst the Asian community in Britain, it is set in the London suburb of Southall.\n\nMrs. Sethi (Shabana Azmi) is a widow living in Southall who wants to marry off her only daughter, for she is alone and unhappy. Her daughter, Roopi, (Goldy Notay) is a little plump and opinionated. Mrs. Sethi finds that all her matchmaking efforts to find a suitor for Roopi are rudely rejected. She avenges this behaviour toward her daughter by killing off the failed dates using her culinary skills. A police hunt begins for a serial murderer using a killer curry &lt;a href=&quot;\nhttp://www.imdb.com/title/tt1319716/&quot; rel=&quot;nofollow&quot; target=&quot;_NEW&quot;&gt;\nhttp://www.imdb.com/title/tt1319716/&lt;/a&gt; &lt;a href=&quot;\nhttp://img812.imageshack.us/img812/9826/sawonderfulafterlifedvd.jpg&quot; rel=&quot;nofollow&quot; target=&quot;_NEW&quot;&gt;\nhttp://img812.imageshack.us/img812/9826/sawonderfulafterlifedvd.jpg&lt;/a&gt; &lt;a href=&quot;\nhttp://img709.imageshack.us/img709/9826/sawonderfulafterlifedvd.jpg&quot; rel=&quot;nofollow&quot; target=&quot;_NEW&quot;&gt;\nhttp://img709.imageshack.us/img709/9826/sawonderfulafterlifedvd.jpg&lt;/a&gt; &lt;a href=&quot;\nhttp://img818.imageshack.us/img818/9826/sawonderfulafterlifedvd.jpg&quot; rel=&quot;nofollow&quot; target=&quot;_NEW&quot;&gt;\nhttp://img818.imageshack.us/img818/9826/sawonderfulafterlifedvd.jpg&lt;/a&gt; &lt;a href=&quot;\nhttp://img231.imageshack.us/img231/9826/sawonderfulafterlifedvd.jpg&quot; rel=&quot;nofollow&quot; target=&quot;_NEW&quot;&gt;\nhttp://img231.imageshack.us/img231/9826/sawonderfulafterlifedvd.jpg&lt;/a&gt;\n\n\nMy Torrents\n    &lt;a href=&quot;\nhttp://thepiratebay.se/user/vicerock/&quot; rel=&quot;nofollow&quot; target=&quot;_NEW&quot;&gt;\nhttp://thepiratebay.se/user/vicerock/&lt;/a&gt;\n","torrent":{"xt":"urn:btih:f4d669ee6bc3315001afea7123d040161390b489","amp;dn":"It%5C%27s+a+Wonderful+Afterlife+-+2010","amp;tr":["udp%3A%2F%2Ftracker.openbittorrent.com%3A80","udp%3A%2F%2Fopen.demonii.com%3A1337","udp%3A%2F%2Ftracker.coppersurfer.tk%3A6969","udp%3A%2F%2Fexodus.desync.com%3A6969"],"infoHash":"f4d669ee6bc3315001afea7123d040161390b489","infoHashBuffer":{"type":"Buffer","data":[244,214,105,238,107,195,49,80,1,175,234,113,35,208,64,22,19,144,180,137]},"announce":[],"urlList":[]}}